<svg width="390" height="37" viewBox="0 0 390 37" fill="none" xmlns="http://www.w3.org/2000/svg">
<path d="M17.4553 22.5756H7.44729L5.79129 27.3636H0.499293L9.53529 2.19965H15.4033L24.4393 27.3636H19.1113L17.4553 22.5756ZM16.0873 18.5436L12.4513 8.03165L8.81529 18.5436H16.0873ZM38.8688 7.13165C41.2448 7.13165 43.1648 7.88765 44.6288 9.39965C46.0928 10.8876 46.8248 12.9756 46.8248 15.6636V27.3636H41.7848V16.3476C41.7848 14.7636 41.3888 13.5516 40.5968 12.7116C39.8048 11.8476 38.7248 11.4156 37.3568 11.4156C35.9648 11.4156 34.8608 11.8476 34.0448 12.7116C33.2528 13.5516 32.8568 14.7636 32.8568 16.3476V27.3636H27.8168V7.41965H32.8568V9.90365C33.5288 9.03965 34.3808 8.36765 35.4128 7.88765C36.4688 7.38365 37.6208 7.13165 38.8688 7.13165ZM50.3216 17.3196C50.3216 15.3036 50.7176 13.5156 51.5096 11.9556C52.3256 10.3956 53.4296 9.19565 54.8216 8.35565C56.2136 7.51565 57.7616 7.09565 59.4656 7.09565C60.7616 7.09565 61.9976 7.38365 63.1736 7.95965C64.3496 8.51165 65.2856 9.25565 65.9816 10.1916V0.723647H71.0936V27.3636H65.9816V24.4116C65.3576 25.3956 64.4816 26.1876 63.3536 26.7876C62.2256 27.3876 60.9176 27.6876 59.4296 27.6876C57.7496 27.6876 56.2136 27.2556 54.8216 26.3916C53.4296 25.5276 52.3256 24.3156 51.5096 22.7556C50.7176 21.1716 50.3216 19.3596 50.3216 17.3196ZM66.0176 17.3916C66.0176 16.1676 65.7776 15.1236 65.2976 14.2596C64.8176 13.3716 64.1696 12.6996 63.3536 12.2436C62.5376 11.7636 61.6616 11.5236 60.7256 11.5236C59.7896 11.5236 58.9256 11.7516 58.1336 12.2076C57.3416 12.6636 56.6936 13.3356 56.1896 14.2236C55.7096 15.0876 55.4696 16.1196 55.4696 17.3196C55.4696 18.5196 55.7096 19.5756 56.1896 20.4876C56.6936 21.3756 57.3416 22.0596 58.1336 22.5396C58.9496 23.0196 59.8136 23.2596 60.7256 23.2596C61.6616 23.2596 62.5376 23.0316 63.3536 22.5756C64.1696 22.0956 64.8176 21.4236 65.2976 20.5596C65.7776 19.6716 66.0176 18.6156 66.0176 17.3916ZM89.6342 2.23565V27.3636H84.5942V2.23565H89.6342ZM101.896 17.3196C101.896 15.3036 102.292 13.5156 103.084 11.9556C103.9 10.3956 104.992 9.19565 106.36 8.35565C107.752 7.51565 109.3 7.09565 111.004 7.09565C112.492 7.09565 113.788 7.39565 114.892 7.99565C116.02 8.59565 116.92 9.35165 117.592 10.2636V7.41965H122.668V27.3636H117.592V24.4476C116.944 25.3836 116.044 26.1636 114.892 26.7876C113.764 27.3876 112.456 27.6876 110.968 27.6876C109.288 27.6876 107.752 27.2556 106.36 26.3916C104.992 25.5276 103.9 24.3156 103.084 22.7556C102.292 21.1716 101.896 19.3596 101.896 17.3196ZM117.592 17.3916C117.592 16.1676 117.352 15.1236 116.872 14.2596C116.392 13.3716 115.744 12.6996 114.928 12.2436C114.112 11.7636 113.236 11.5236 112.3 11.5236C111.364 11.5236 110.5 11.7516 109.708 12.2076C108.916 12.6636 108.268 13.3356 107.764 14.2236C107.284 15.0876 107.044 16.1196 107.044 17.3196C107.044 18.5196 107.284 19.5756 107.764 20.4876C108.268 21.3756 108.916 22.0596 109.708 22.5396C110.524 23.0196 111.388 23.2596 112.3 23.2596C113.236 23.2596 114.112 23.0316 114.928 22.5756C115.744 22.0956 116.392 21.4236 116.872 20.5596C117.352 19.6716 117.592 18.6156 117.592 17.3916ZM152.358 7.13165C154.806 7.13165 156.774 7.88765 158.262 9.39965C159.774 10.8876 160.53 12.9756 160.53 15.6636V27.3636H155.49V16.3476C155.49 14.7876 155.094 13.5996 154.302 12.7836C153.51 11.9436 152.43 11.5236 151.062 11.5236C149.694 11.5236 148.602 11.9436 147.786 12.7836C146.994 13.5996 146.598 14.7876 146.598 16.3476V27.3636H141.558V16.3476C141.558 14.7876 141.162 13.5996 140.37 12.7836C139.578 11.9436 138.498 11.5236 137.13 11.5236C135.738 11.5236 134.634 11.9436 133.818 12.7836C133.026 13.5996 132.63 14.7876 132.63 16.3476V27.3636H127.59V7.41965H132.63V9.83165C133.278 8.99165 134.106 8.33165 135.114 7.85165C136.146 7.37165 137.274 7.13165 138.498 7.13165C140.058 7.13165 141.45 7.46765 142.674 8.13965C143.898 8.78765 144.846 9.72365 145.518 10.9476C146.166 9.79565 147.102 8.87165 148.326 8.17565C149.574 7.47965 150.918 7.13165 152.358 7.13165ZM172.595 17.3196C172.595 15.3036 172.991 13.5156 173.783 11.9556C174.599 10.3956 175.691 9.19565 177.059 8.35565C178.451 7.51565 179.999 7.09565 181.703 7.09565C183.191 7.09565 184.487 7.39565 185.591 7.99565C186.719 8.59565 187.619 9.35165 188.291 10.2636V7.41965H193.367V27.3636H188.291V24.4476C187.643 25.3836 186.743 26.1636 185.591 26.7876C184.463 27.3876 183.155 27.6876 181.667 27.6876C179.987 27.6876 178.451 27.2556 177.059 26.3916C175.691 25.5276 174.599 24.3156 173.783 22.7556C172.991 21.1716 172.595 19.3596 172.595 17.3196ZM188.291 17.3916C188.291 16.1676 188.051 15.1236 187.571 14.2596C187.091 13.3716 186.443 12.6996 185.627 12.2436C184.811 11.7636 183.935 11.5236 182.999 11.5236C182.063 11.5236 181.199 11.7516 180.407 12.2076C179.615 12.6636 178.967 13.3356 178.463 14.2236C177.983 15.0876 177.743 16.1196 177.743 17.3196C177.743 18.5196 177.983 19.5756 178.463 20.4876C178.967 21.3756 179.615 22.0596 180.407 22.5396C181.223 23.0196 182.087 23.2596 182.999 23.2596C183.935 23.2596 184.811 23.0316 185.627 22.5756C186.443 22.0956 187.091 21.4236 187.571 20.5596C188.051 19.6716 188.291 18.6156 188.291 17.3916ZM215.652 2.23565C218.292 2.23565 220.608 2.75165 222.6 3.78365C224.616 4.81565 226.164 6.29165 227.244 8.21165C228.348 10.1076 228.9 12.3156 228.9 14.8356C228.9 17.3556 228.348 19.5636 227.244 21.4596C226.164 23.3316 224.616 24.7836 222.6 25.8156C220.608 26.8476 218.292 27.3636 215.652 27.3636H206.868V2.23565H215.652ZM215.472 23.0796C218.112 23.0796 220.152 22.3596 221.592 20.9196C223.032 19.4796 223.752 17.4516 223.752 14.8356C223.752 12.2196 223.032 10.1796 221.592 8.71565C220.152 7.22765 218.112 6.48365 215.472 6.48365H211.908V23.0796H215.472ZM251.212 16.9596C251.212 17.6796 251.164 18.3276 251.068 18.9036H236.488C236.608 20.3436 237.112 21.4716 238 22.2876C238.888 23.1036 239.98 23.5116 241.276 23.5116C243.148 23.5116 244.48 22.7076 245.272 21.0996H250.708C250.132 23.0196 249.028 24.6036 247.396 25.8516C245.764 27.0756 243.76 27.6876 241.384 27.6876C239.464 27.6876 237.736 27.2676 236.2 26.4276C234.688 25.5636 233.5 24.3516 232.636 22.7916C231.796 21.2316 231.376 19.4316 231.376 17.3916C231.376 15.3276 231.796 13.5156 232.636 11.9556C233.476 10.3956 234.652 9.19565 236.164 8.35565C237.676 7.51565 239.416 7.09565 241.384 7.09565C243.28 7.09565 244.972 7.50365 246.46 8.31965C247.972 9.13565 249.136 10.2996 249.952 11.8116C250.792 13.2996 251.212 15.0156 251.212 16.9596ZM245.992 15.5196C245.968 14.2236 245.5 13.1916 244.588 12.4236C243.676 11.6316 242.56 11.2356 241.24 11.2356C239.992 11.2356 238.936 11.6196 238.072 12.3876C237.232 13.1316 236.716 14.1756 236.524 15.5196H245.992ZM263.207 22.7196L268.247 7.41965H273.611L266.231 27.3636H260.111L252.767 7.41965H258.167L263.207 22.7196ZM294.982 16.9596C294.982 17.6796 294.934 18.3276 294.838 18.9036H280.258C280.378 20.3436 280.882 21.4716 281.77 22.2876C282.658 23.1036 283.75 23.5116 285.046 23.5116C286.918 23.5116 288.25 22.7076 289.042 21.0996H294.478C293.902 23.0196 292.798 24.6036 291.166 25.8516C289.534 27.0756 287.53 27.6876 285.154 27.6876C283.234 27.6876 281.506 27.2676 279.97 26.4276C278.458 25.5636 277.27 24.3516 276.406 22.7916C275.566 21.2316 275.146 19.4316 275.146 17.3916C275.146 15.3276 275.566 13.5156 276.406 11.9556C277.246 10.3956 278.422 9.19565 279.934 8.35565C281.446 7.51565 283.186 7.09565 285.154 7.09565C287.05 7.09565 288.742 7.50365 290.23 8.31965C291.742 9.13565 292.906 10.2996 293.722 11.8116C294.562 13.2996 294.982 15.0156 294.982 16.9596ZM289.762 15.5196C289.738 14.2236 289.27 13.1916 288.358 12.4236C287.446 11.6316 286.33 11.2356 285.01 11.2356C283.762 11.2356 282.706 11.6196 281.842 12.3876C281.002 13.1316 280.486 14.1756 280.294 15.5196H289.762ZM303.701 0.723647V27.3636H298.661V0.723647H303.701ZM317.536 27.6876C315.616 27.6876 313.888 27.2676 312.352 26.4276C310.816 25.5636 309.604 24.3516 308.716 22.7916C307.852 21.2316 307.42 19.4316 307.42 17.3916C307.42 15.3516 307.864 13.5516 308.752 11.9916C309.664 10.4316 310.9 9.23165 312.46 8.39165C314.02 7.52765 315.76 7.09565 317.68 7.09565C319.6 7.09565 321.34 7.52765 322.9 8.39165C324.46 9.23165 325.684 10.4316 326.572 11.9916C327.484 13.5516 327.94 15.3516 327.94 17.3916C327.94 19.4316 327.472 21.2316 326.536 22.7916C325.624 24.3516 324.376 25.5636 322.792 26.4276C321.232 27.2676 319.48 27.6876 317.536 27.6876ZM317.536 23.2956C318.448 23.2956 319.3 23.0796 320.092 22.6476C320.908 22.1916 321.556 21.5196 322.036 20.6316C322.516 19.7436 322.756 18.6636 322.756 17.3916C322.756 15.4956 322.252 14.0436 321.244 13.0356C320.26 12.0036 319.048 11.4876 317.608 11.4876C316.168 11.4876 314.956 12.0036 313.972 13.0356C313.012 14.0436 312.532 15.4956 312.532 17.3916C312.532 19.2876 313 20.7516 313.936 21.7836C314.896 22.7916 316.096 23.2956 317.536 23.2956ZM336.677 10.2996C337.325 9.38765 338.213 8.63165 339.341 8.03165C340.493 7.40765 341.801 7.09565 343.265 7.09565C344.969 7.09565 346.505 7.51565 347.873 8.35565C349.265 9.19565 350.357 10.3956 351.149 11.9556C351.965 13.4916 352.373 15.2796 352.373 17.3196C352.373 19.3596 351.965 21.1716 351.149 22.7556C350.357 24.3156 349.265 25.5276 347.873 26.3916C346.505 27.2556 344.969 27.6876 343.265 27.6876C341.801 27.6876 340.505 27.3876 339.377 26.7876C338.273 26.1876 337.373 25.4316 336.677 24.5196V36.8676H331.637V7.41965H336.677V10.2996ZM347.225 17.3196C347.225 16.1196 346.973 15.0876 346.469 14.2236C345.989 13.3356 345.341 12.6636 344.525 12.2076C343.733 11.7516 342.869 11.5236 341.933 11.5236C341.021 11.5236 340.157 11.7636 339.341 12.2436C338.549 12.6996 337.901 13.3716 337.397 14.2596C336.917 15.1476 336.677 16.1916 336.677 17.3916C336.677 18.5916 336.917 19.6356 337.397 20.5236C337.901 21.4116 338.549 22.0956 339.341 22.5756C340.157 23.0316 341.021 23.2596 341.933 23.2596C342.869 23.2596 343.733 23.0196 344.525 22.5396C345.341 22.0596 345.989 21.3756 346.469 20.4876C346.973 19.5996 347.225 18.5436 347.225 17.3196ZM374.576 16.9596C374.576 17.6796 374.528 18.3276 374.432 18.9036H359.852C359.972 20.3436 360.476 21.4716 361.364 22.2876C362.252 23.1036 363.344 23.5116 364.64 23.5116C366.512 23.5116 367.844 22.7076 368.636 21.0996H374.072C373.496 23.0196 372.392 24.6036 370.76 25.8516C369.128 27.0756 367.124 27.6876 364.748 27.6876C362.828 27.6876 361.1 27.2676 359.564 26.4276C358.052 25.5636 356.864 24.3516 356 22.7916C355.16 21.2316 354.74 19.4316 354.74 17.3916C354.74 15.3276 355.16 13.5156 356 11.9556C356.84 10.3956 358.016 9.19565 359.528 8.35565C361.04 7.51565 362.78 7.09565 364.748 7.09565C366.644 7.09565 368.336 7.50365 369.824 8.31965C371.336 9.13565 372.5 10.2996 373.316 11.8116C374.156 13.2996 374.576 15.0156 374.576 16.9596ZM369.356 15.5196C369.332 14.2236 368.864 13.1916 367.952 12.4236C367.04 11.6316 365.924 11.2356 364.604 11.2356C363.356 11.2356 362.3 11.6196 361.436 12.3876C360.596 13.1316 360.08 14.1756 359.888 15.5196H369.356ZM383.294 10.5156C383.942 9.45965 384.782 8.63165 385.814 8.03165C386.87 7.43165 388.07 7.13165 389.414 7.13165V12.4236H388.082C386.498 12.4236 385.298 12.7956 384.482 13.5396C383.69 14.2836 383.294 15.5796 383.294 17.4276V27.3636H378.254V7.41965H383.294V10.5156Z" fill="#737373"/>
</svg>
