<svg width="405" height="58" viewBox="0 0 405 58" fill="none" xmlns="http://www.w3.org/2000/svg">
<path d="M9.34028 5.82027V43H0.283679V5.82027H9.34028ZM17.969 5.82027H27.2375L21.3057 20.0142H15.215L17.969 5.82027ZM70.2671 13.1291C73.9392 13.1291 76.8521 14.2413 79.0059 16.4657C81.195 18.6902 82.2896 21.7797 82.2896 25.7342V43H73.286V26.9523C73.286 25.0457 72.774 23.5804 71.7501 22.5564C70.7614 21.4972 69.3844 20.9676 67.619 20.9676C65.8536 20.9676 64.4589 21.4972 63.4349 22.5564C62.4463 23.5804 61.952 25.0457 61.952 26.9523V43H52.9483V26.9523C52.9483 25.0457 52.4364 23.5804 51.4124 22.5564C50.4238 21.4972 49.0468 20.9676 47.2813 20.9676C45.5159 20.9676 44.1212 21.4972 43.0973 22.5564C42.1087 23.5804 41.6143 25.0457 41.6143 26.9523V43H32.5577V13.4469H41.6143V17.1543C42.5324 15.9185 43.7328 14.9475 45.2158 14.2413C46.6988 13.4998 48.3759 13.1291 50.2472 13.1291C52.4717 13.1291 54.4489 13.6058 56.1791 14.5591C57.9445 15.5124 59.3215 16.8718 60.3101 18.6372C61.3341 17.013 62.7288 15.689 64.4942 14.665C66.2596 13.6411 68.1839 13.1291 70.2671 13.1291ZM113.141 34.526L119.549 13.4469H129.188L118.702 43H107.527L97.0401 13.4469H106.732L113.141 34.526ZM137.555 10.3751C135.966 10.3751 134.66 9.91605 133.636 8.99803C132.647 8.0447 132.153 6.87953 132.153 5.5025C132.153 4.09016 132.647 2.92499 133.636 2.00697C134.66 1.05364 135.966 0.576978 137.555 0.576978C139.109 0.576978 140.38 1.05364 141.369 2.00697C142.392 2.92499 142.904 4.09016 142.904 5.5025C142.904 6.87953 142.392 8.0447 141.369 8.99803C140.38 9.91605 139.109 10.3751 137.555 10.3751ZM142.057 13.4469V43H133V13.4469H142.057ZM166.68 43L157.677 30.6068V43H148.62V3.8077H157.677V25.4694L166.628 13.4469H177.803L165.515 28.2764L177.909 43H166.68ZM199.42 43L190.416 30.6068V43H181.36V3.8077H190.416V25.4694L199.367 13.4469H210.542L198.255 28.2764L210.648 43H199.42ZM244.288 13.4469L225.751 57.0351H216.006L222.785 41.9937L210.763 13.4469H220.879L227.711 31.9308L234.49 13.4469H244.288ZM270.809 43.4237C268.232 43.4237 265.936 42.9823 263.924 42.0996C261.911 41.2169 260.322 40.0164 259.157 38.4982C257.992 36.9446 257.339 35.2145 257.198 33.3078H266.148C266.254 34.3318 266.731 35.1615 267.578 35.7971C268.426 36.4326 269.467 36.7504 270.703 36.7504C271.833 36.7504 272.698 36.5386 273.298 36.1149C273.934 35.6559 274.252 35.0733 274.252 34.3671C274.252 33.5197 273.81 32.9018 272.928 32.5134C272.045 32.0897 270.615 31.6307 268.638 31.1364C266.519 30.6421 264.754 30.1301 263.341 29.6005C261.929 29.0355 260.711 28.1705 259.687 27.0053C258.663 25.8048 258.151 24.1983 258.151 22.1857C258.151 20.4909 258.61 18.955 259.528 17.578C260.481 16.1656 261.858 15.0534 263.659 14.2413C265.495 13.4292 267.667 13.0232 270.174 13.0232C273.881 13.0232 276.794 13.9412 278.912 15.7772C281.066 17.6133 282.302 20.0496 282.62 23.0861H274.252C274.11 22.0621 273.651 21.25 272.875 20.6498C272.133 20.0496 271.144 19.7494 269.909 19.7494C268.849 19.7494 268.037 19.9613 267.472 20.385C266.907 20.7734 266.625 21.3207 266.625 22.0268C266.625 22.8742 267.066 23.5098 267.949 23.9335C268.867 24.3572 270.279 24.7809 272.186 25.2046C274.375 25.7695 276.158 26.3344 277.535 26.8994C278.912 27.429 280.113 28.3117 281.137 29.5475C282.196 30.748 282.743 32.3722 282.779 34.4201C282.779 36.1502 282.284 37.7037 281.296 39.0808C280.342 40.4225 278.948 41.4817 277.112 42.2585C275.311 43.0353 273.21 43.4237 270.809 43.4237ZM292.874 10.3751C291.285 10.3751 289.979 9.91605 288.955 8.99803C287.966 8.0447 287.472 6.87953 287.472 5.5025C287.472 4.09016 287.966 2.92499 288.955 2.00697C289.979 1.05364 291.285 0.576978 292.874 0.576978C294.428 0.576978 295.699 1.05364 296.687 2.00697C297.711 2.92499 298.223 4.09016 298.223 5.5025C298.223 6.87953 297.711 8.0447 296.687 8.99803C295.699 9.91605 294.428 10.3751 292.874 10.3751ZM297.376 13.4469V43H288.319V13.4469H297.376ZM321.946 13.1291C325.407 13.1291 328.161 14.259 330.209 16.5187C332.292 18.7431 333.333 21.815 333.333 25.7342V43H324.33V26.9523C324.33 24.9751 323.818 23.4392 322.794 22.3446C321.77 21.25 320.393 20.7028 318.663 20.7028C316.933 20.7028 315.556 21.25 314.532 22.3446C313.508 23.4392 312.996 24.9751 312.996 26.9523V43H303.939V13.4469H312.996V17.3661C313.914 16.0597 315.15 15.0358 316.703 14.2943C318.257 13.5175 320.005 13.1291 321.946 13.1291ZM350.855 13.0232C352.938 13.0232 354.757 13.4469 356.31 14.2943C357.899 15.1417 359.117 16.2539 359.965 17.6309V13.4469H369.021V42.947C369.021 45.6658 368.474 48.1197 367.379 50.3088C366.32 52.5333 364.678 54.2987 362.454 55.6051C360.265 56.9115 357.528 57.5647 354.245 57.5647C349.866 57.5647 346.318 56.5231 343.599 54.4399C340.88 52.392 339.327 49.6027 338.938 46.0718H347.889C348.172 47.2017 348.842 48.0844 349.902 48.72C350.961 49.3908 352.267 49.7262 353.821 49.7262C355.692 49.7262 357.175 49.179 358.27 48.0844C359.4 47.0252 359.965 45.3127 359.965 42.947V38.763C359.082 40.14 357.864 41.2699 356.31 42.1526C354.757 43 352.938 43.4237 350.855 43.4237C348.419 43.4237 346.212 42.8058 344.235 41.57C342.257 40.2989 340.686 38.5158 339.521 36.2208C338.391 33.8904 337.826 31.207 337.826 28.1705C337.826 25.134 338.391 22.4682 339.521 20.1731C340.686 17.8781 342.257 16.1127 344.235 14.8769C346.212 13.6411 348.419 13.0232 350.855 13.0232ZM359.965 28.2234C359.965 25.9637 359.329 24.1806 358.058 22.8742C356.822 21.5678 355.304 20.9146 353.503 20.9146C351.702 20.9146 350.166 21.5678 348.895 22.8742C347.66 24.1453 347.042 25.9107 347.042 28.1705C347.042 30.4302 347.66 32.2309 348.895 33.5727C350.166 34.8791 351.702 35.5323 353.503 35.5323C355.304 35.5323 356.822 34.8791 358.058 33.5727C359.329 32.2663 359.965 30.4832 359.965 28.2234ZM393.739 13.1291C397.129 13.1291 399.848 14.259 401.896 16.5187C403.943 18.7431 404.967 21.815 404.967 25.7342V43H395.964V26.9523C395.964 24.9751 395.452 23.4392 394.428 22.3446C393.404 21.25 392.027 20.7028 390.297 20.7028C388.567 20.7028 387.19 21.25 386.166 22.3446C385.142 23.4392 384.63 24.9751 384.63 26.9523V43H375.573V3.8077H384.63V17.4191C385.548 16.1127 386.801 15.0711 388.39 14.2943C389.979 13.5175 391.762 13.1291 393.739 13.1291Z" fill="url(#paint0_linear)"/>
<defs>
<linearGradient id="paint0_linear" x1="-3.43671" y1="43.3637" x2="429.561" y2="44.306" gradientUnits="userSpaceOnUse">
<stop offset="0.265606" stop-color="#645656"/>
<stop offset="0.582358" stop-color="#BE8484" stop-opacity="0.87"/>
</linearGradient>
</defs>
</svg>
