<svg width="258" height="88" viewBox="0 0 258 88" fill="none" xmlns="http://www.w3.org/2000/svg">
<path d="M0 0H257.712V87.6364H128.856H0V0Z" fill="#C36CBB"/>
<path d="M63.1423 54.6364L58.4703 46.1564H57.1583V54.6364H51.6863V32.1724H60.8703C62.641 32.1724 64.145 32.4817 65.3823 33.1004C66.641 33.719 67.5797 34.5724 68.1983 35.6604C68.817 36.727 69.1263 37.9217 69.1263 39.2444C69.1263 40.7377 68.6997 42.071 67.8463 43.2444C67.0143 44.4177 65.777 45.2497 64.1343 45.7404L69.3183 54.6364H63.1423ZM57.1583 42.2844H60.5503C61.553 42.2844 62.2997 42.039 62.7903 41.5484C63.3023 41.0577 63.5583 40.3644 63.5583 39.4684C63.5583 38.615 63.3023 37.943 62.7903 37.4524C62.2997 36.9617 61.553 36.7164 60.5503 36.7164H57.1583V42.2844ZM89.3933 45.4204C89.3933 45.9324 89.3613 46.4657 89.2973 47.0204H76.9133C76.9987 48.1297 77.3507 48.983 77.9693 49.5804C78.6093 50.1564 79.388 50.4444 80.3053 50.4444C81.6707 50.4444 82.62 49.8684 83.1533 48.7164H88.9773C88.6787 49.8897 88.1347 50.9457 87.3453 51.8844C86.5773 52.823 85.6067 53.559 84.4333 54.0924C83.26 54.6257 81.948 54.8924 80.4973 54.8924C78.748 54.8924 77.1907 54.519 75.8253 53.7724C74.46 53.0257 73.3933 51.959 72.6253 50.5724C71.8573 49.1857 71.4733 47.5644 71.4733 45.7084C71.4733 43.8524 71.8467 42.231 72.5933 40.8444C73.3613 39.4577 74.428 38.391 75.7933 37.6444C77.1587 36.8977 78.7267 36.5244 80.4973 36.5244C82.2253 36.5244 83.7613 36.887 85.1053 37.6124C86.4493 38.3377 87.4947 39.3724 88.2413 40.7164C89.0093 42.0604 89.3933 43.6284 89.3933 45.4204ZM83.7933 43.9804C83.7933 43.0417 83.4733 42.295 82.8333 41.7404C82.1933 41.1857 81.3933 40.9084 80.4333 40.9084C79.516 40.9084 78.7373 41.175 78.0973 41.7084C77.4787 42.2417 77.0947 42.999 76.9453 43.9804H83.7933ZM91.1921 45.6764C91.1921 43.8417 91.5334 42.231 92.2161 40.8444C92.9201 39.4577 93.8694 38.391 95.0641 37.6444C96.2587 36.8977 97.5921 36.5244 99.0641 36.5244C100.323 36.5244 101.421 36.7804 102.36 37.2924C103.32 37.8044 104.056 38.4764 104.568 39.3084V36.7804H110.04V54.6364H104.568V52.1084C104.035 52.9404 103.288 53.6124 102.328 54.1244C101.389 54.6364 100.291 54.8924 99.0321 54.8924C97.5814 54.8924 96.2587 54.519 95.0641 53.7724C93.8694 53.0044 92.9201 51.927 92.2161 50.5404C91.5334 49.1324 91.1921 47.511 91.1921 45.6764ZM104.568 45.7084C104.568 44.343 104.184 43.2657 103.416 42.4764C102.669 41.687 101.752 41.2924 100.664 41.2924C99.5761 41.2924 98.6481 41.687 97.8801 42.4764C97.1334 43.2444 96.7601 44.311 96.7601 45.6764C96.7601 47.0417 97.1334 48.1297 97.8801 48.9404C98.6481 49.7297 99.5761 50.1244 100.664 50.1244C101.752 50.1244 102.669 49.7297 103.416 48.9404C104.184 48.151 104.568 47.0737 104.568 45.7084ZM112.911 45.6764C112.911 43.8417 113.252 42.231 113.935 40.8444C114.639 39.4577 115.588 38.391 116.783 37.6444C117.977 36.8977 119.311 36.5244 120.783 36.5244C121.956 36.5244 123.023 36.7697 123.983 37.2604C124.964 37.751 125.732 38.4124 126.287 39.2444V30.9564H131.759V54.6364H126.287V52.0764C125.775 52.9297 125.039 53.6124 124.079 54.1244C123.14 54.6364 122.041 54.8924 120.783 54.8924C119.311 54.8924 117.977 54.519 116.783 53.7724C115.588 53.0044 114.639 51.927 113.935 50.5404C113.252 49.1324 112.911 47.511 112.911 45.6764ZM126.287 45.7084C126.287 44.343 125.903 43.2657 125.135 42.4764C124.388 41.687 123.471 41.2924 122.383 41.2924C121.295 41.2924 120.367 41.687 119.599 42.4764C118.852 43.2444 118.479 44.311 118.479 45.6764C118.479 47.0417 118.852 48.1297 119.599 48.9404C120.367 49.7297 121.295 50.1244 122.383 50.1244C123.471 50.1244 124.388 49.7297 125.135 48.9404C125.903 48.151 126.287 47.0737 126.287 45.7084ZM165.283 36.5884C167.501 36.5884 169.261 37.2604 170.563 38.6044C171.885 39.9484 172.547 41.815 172.547 44.2044V54.6364H167.107V44.9404C167.107 43.7884 166.797 42.903 166.179 42.2844C165.581 41.6444 164.749 41.3244 163.683 41.3244C162.616 41.3244 161.773 41.6444 161.155 42.2844C160.557 42.903 160.259 43.7884 160.259 44.9404V54.6364H154.819V44.9404C154.819 43.7884 154.509 42.903 153.891 42.2844C153.293 41.6444 152.461 41.3244 151.395 41.3244C150.328 41.3244 149.485 41.6444 148.867 42.2844C148.269 42.903 147.971 43.7884 147.971 44.9404V54.6364H142.499V36.7804H147.971V39.0204C148.525 38.2737 149.251 37.687 150.147 37.2604C151.043 36.8124 152.056 36.5884 153.187 36.5884C154.531 36.5884 155.725 36.8764 156.771 37.4524C157.837 38.0284 158.669 38.8497 159.267 39.9164C159.885 38.935 160.728 38.135 161.795 37.5164C162.861 36.8977 164.024 36.5884 165.283 36.5884ZM184.502 54.8924C182.752 54.8924 181.174 54.519 179.766 53.7724C178.379 53.0257 177.28 51.959 176.47 50.5724C175.68 49.1857 175.286 47.5644 175.286 45.7084C175.286 43.8737 175.691 42.263 176.502 40.8764C177.312 39.4684 178.422 38.391 179.83 37.6444C181.238 36.8977 182.816 36.5244 184.566 36.5244C186.315 36.5244 187.894 36.8977 189.302 37.6444C190.71 38.391 191.819 39.4684 192.63 40.8764C193.44 42.263 193.846 43.8737 193.846 45.7084C193.846 47.543 193.43 49.1644 192.598 50.5724C191.787 51.959 190.667 53.0257 189.238 53.7724C187.83 54.519 186.251 54.8924 184.502 54.8924ZM184.502 50.1564C185.547 50.1564 186.432 49.7724 187.158 49.0044C187.904 48.2364 188.278 47.1377 188.278 45.7084C188.278 44.279 187.915 43.1804 187.19 42.4124C186.486 41.6444 185.611 41.2604 184.566 41.2604C183.499 41.2604 182.614 41.6444 181.91 42.4124C181.206 43.159 180.854 44.2577 180.854 45.7084C180.854 47.1377 181.195 48.2364 181.878 49.0044C182.582 49.7724 183.456 50.1564 184.502 50.1564ZM202.221 39.7564C202.861 38.775 203.661 38.007 204.621 37.4524C205.581 36.8764 206.647 36.5884 207.821 36.5884V42.3804H206.317C204.951 42.3804 203.927 42.679 203.245 43.2764C202.562 43.8524 202.221 44.8764 202.221 46.3484V54.6364H196.749V36.7804H202.221V39.7564ZM227.268 45.4204C227.268 45.9324 227.236 46.4657 227.172 47.0204H214.788C214.874 48.1297 215.226 48.983 215.844 49.5804C216.484 50.1564 217.263 50.4444 218.18 50.4444C219.546 50.4444 220.495 49.8684 221.028 48.7164H226.852C226.554 49.8897 226.01 50.9457 225.22 51.8844C224.452 52.823 223.482 53.559 222.308 54.0924C221.135 54.6257 219.823 54.8924 218.372 54.8924C216.623 54.8924 215.066 54.519 213.7 53.7724C212.335 53.0257 211.268 51.959 210.5 50.5724C209.732 49.1857 209.348 47.5644 209.348 45.7084C209.348 43.8524 209.722 42.231 210.468 40.8444C211.236 39.4577 212.303 38.391 213.668 37.6444C215.034 36.8977 216.602 36.5244 218.372 36.5244C220.1 36.5244 221.636 36.887 222.98 37.6124C224.324 38.3377 225.37 39.3724 226.116 40.7164C226.884 42.0604 227.268 43.6284 227.268 45.4204ZM221.668 43.9804C221.668 43.0417 221.348 42.295 220.708 41.7404C220.068 41.1857 219.268 40.9084 218.308 40.9084C217.391 40.9084 216.612 41.175 215.972 41.7084C215.354 42.2417 214.97 42.999 214.82 43.9804H221.668Z" fill="#E6E6E6"/>
<path d="M8.22797 62.6685C8.22797 61.002 8.76976 59.4038 9.73416 58.2255C10.6986 57.0471 12.0066 56.3851 13.3704 56.3851H41.1397" stroke="#645656" stroke-width="5" stroke-linecap="round" stroke-linejoin="round"/>
<path d="M13.3704 18.6844H41.1397V68.952H13.3704C12.0066 68.952 10.6986 68.29 9.73416 67.1116C8.76976 65.9332 8.22797 64.335 8.22797 62.6685V24.9678C8.22797 23.3013 8.76976 21.7031 9.73416 20.5248C10.6986 19.3464 12.0066 18.6844 13.3704 18.6844V18.6844Z" stroke="#645656" stroke-width="5" stroke-linecap="round" stroke-linejoin="round"/>
</svg>
